0
SECTION
2
HEADER
9
$INSUNITS
70
4
9
$ACADVER
1
AC1014
9
$HANDSEED
5
FFFF
0
ENDSEC
0
SECTION
2
TABLES
0
TABLE
2
VPORT
5
8
100
AcDbSymbolTable
0
ENDTAB
0
TABLE
2
LTYPE
5
5
100
AcDbSymbolTable
0
LTYPE
5
14
100
AcDbSymbolTableRecord
100
AcDbLinetypeTableRecord
2
BYBLOCK
70
0
0
LTYPE
5
15
100
AcDbSymbolTableRecord
100
AcDbLinetypeTableRecord
2
BYLAYER
70
0
0
ENDTAB
0
TABLE
2
LAYER
5
2
100
AcDbSymbolTable
70
2
0
LAYER
5
50
100
AcDbSymbolTableRecord
100
AcDbLayerTableRecord
2
0
70
0
6
CONTINUOUS
0
ENDTAB
0
TABLE
2
STYLE
5
3
100
AcDbSymbolTable
70
1
0
STYLE
5
11
100
AcDbSymbolTableRecord
100
AcDbTextStyleTableRecord
2
STANDARD
70
0
0
ENDTAB
0
TABLE
2
VIEW
5
6
100
AcDbSymbolTable
70
0
0
ENDTAB
0
TABLE
2
UCS
5
7
100
AcDbSymbolTable
70
0
0
ENDTAB
0
TABLE
2
APPID
5
9
100
AcDbSymbolTable
70
2
0
APPID
5
12
100
AcDbSymbolTableRecord
100
AcDbRegAppTableRecord
2
ACAD
70
0
0
ENDTAB
0
TABLE
2
DIMSTYLE
5
A
100
AcDbSymbolTable
70
1
0
ENDTAB
0
TABLE
2
BLOCK_RECORD
5
1
100
AcDbSymbolTable
70
1
0
BLOCK_RECORD
5
1F
100
AcDbSymbolTableRecord
100
AcDbBlockTableRecord
2
*MODEL_SPACE
0
BLOCK_RECORD
5
1B
100
AcDbSymbolTableRecord
100
AcDbBlockTableRecord
2
*PAPER_SPACE
0
ENDTAB
0
ENDSEC
0
SECTION
2
BLOCKS
0
BLOCK
5
20
100
AcDbEntity
100
AcDbBlockBegin
2
*MODEL_SPACE
0
ENDBLK
5
21
100
AcDbEntity
100
AcDbBlockEnd
0
BLOCK
5
1C
100
AcDbEntity
100
AcDbBlockBegin
2
*PAPER_SPACE
0
ENDBLK
5
1D
100
AcDbEntity
100
AcDbBlockEnd
0
ENDSEC
0
SECTION
2
ENTITIES
0
CIRCLE
5
100
100
AcDbEntity
8
0
100
AcDbCircle
10
-26.049999417737126
20
-115.94999740831554
30
0
40
0.89999997988343239
210
0
220
-0
230
1
0
CIRCLE
5
101
100
AcDbEntity
8
0
100
AcDbCircle
10
19.174999999999997
20
-9.4499999999999993
30
0
40
1.25
210
0
220
-0
230
1
0
CIRCLE
5
102
100
AcDbEntity
8
0
100
AcDbCircle
10
7.1749999999999936
20
-80.349999999999994
30
0
40
2.5
210
0
220
-0
230
1
0
CIRCLE
5
103
100
AcDbEntity
8
0
100
AcDbCircle
10
20.925000000000029
20
-115.8
30
0
40
1.25
210
0
220
-0
230
1
0
CIRCLE
5
104
100
AcDbEntity
8
0
100
AcDbCircle
10
6.9249999999999954
20
-10.500000000000004
30
0
40
0.99999999999999978
210
0
220
-0
230
1
0
CIRCLE
5
105
100
AcDbEntity
8
0
100
AcDbCircle
10
-31.174999999999976
20
-81.050000000000026
30
0
40
1.0000000000000009
210
0
220
-0
230
1
0
CIRCLE
5
106
100
AcDbEntity
8
0
100
AcDbCircle
10
-20.924999999999969
20
-115.8
30
0
40
1.25
210
0
220
-0
230
1
0
CIRCLE
5
107
100
AcDbEntity
8
0
100
AcDbCircle
10
-18.924999999999969
20
-9.4500000000000064
30
0
40
1.25
210
0
220
-0
230
1
0
LWPOLYLINE
5
108
100
AcDbEntity
8
0
100
AcDbPolyline
90
44
70
1
43
0.0
10
-33.699999246746302
20
-113.16024188125792
10
-36.174999999999969
20
-113.16024188125792
10
-36.174999999999969
20
-84.750000000000014
10
-34.924999999999976
20
-84.750000000000014
42
0.99999999999999989
10
-34.924999999999976
20
-82.250000000000014
10
-36.174999999999976
20
-82.250000000000014
10
-36.174999999999969
20
-52.000000000000014
10
-34.924999999999969
20
-52.000000000000014
42
0.99999999999999989
10
-34.924999999999969
20
-49.500000000000014
10
-36.174999999999983
20
-49.500000000000014
10
-36.174999999999955
20
-21.749999999999989
10
-34.924999999999969
20
-21.749999999999989
42
0.99999999999999989
10
-34.924999999999969
20
-19.249999999999989
10
-35.674999999999969
20
-19.249999999999989
10
-35.675000000000011
20
-10.830138495172097
10
-28.500000000000007
20
-3.0000000000000071
10
-16.500000000000004
20
-3.0000000000000071
10
-16.500000000000004
20
0
10
16.500000000000004
20
0
10
16.500000000000004
20
-3.0000000000000071
10
28.500000000000007
20
-3.0000000000000071
10
35.674999999999997
20
-10.830138495172008
10
35.675000000000026
20
-19.000000000000004
10
34.92499999950698
20
-19.000000000295788
42
0.99999999999999989
10
34.925000000284143
20
-21.500000000295785
10
36.174999999999962
20
-21.500000000011656
10
36.175000000000033
20
-49.5
10
34.925000000000004
20
-49.5
42
0.99999999999999989
10
34.924999999999997
20
-52
10
36.174999999999997
20
-52
10
36.175000000000004
20
-89.5
10
34.925000000000004
20
-89.5
42
0.99999999999999989
10
34.925000000000011
20
-92
10
36.175000000000033
20
-92.000000000000028
10
36.174999999999962
20
-113.16024188125792
10
33.699999246746295
20
-113.16024188125792
42
0.33167479142255957
10
31.499999295920134
20
-114.79999743402004
10
28.199999369680882
20
-114.79999743402004
42
0.41421356237309648
10
27.299999389797449
20
-115.69999741390347
10
27.299999389797449
20
-118.4999973513186
10
-27.299999389797449
20
-118.4999973513186
10
-27.299999389797449
20
-115.69999741390347
42
0.41421356237309648
10
-28.199999369680882
20
-114.79999743402004
10
-31.499999295920134
20
-114.79999743402004
42
0.33167479142255973
0
ENDSEC
0
SECTION
2
OBJECTS
0
DICTIONARY
5
C
100
AcDbDictionary
3
ACAD_GROUP
350
D
3
ACAD_MLINESTYLE
350
17
0
DICTIONARY
5
D
100
AcDbDictionary
0
DICTIONARY
5
1A
330
C
100
AcDbDictionary
0
DICTIONARY
5
17
100
AcDbDictionary
0
ENDSEC
0
EOF
